<?xml version="1.0" encoding="UTF-8"?>
<svg id="Layer_1" data-name="Layer 1" xmlns="http://www.w3.org/2000/svg" version="1.1" viewBox="0 0 200 48">
  <defs>
    <style>
      .cls-1 {
        fill: #76b3ff;
      }

      .cls-1, .cls-2 {
        stroke-width: 0px;
      }

      .cls-2 {
        fill: #308bfc;
      }
    </style>
  </defs>
  <path class="cls-1" d="M169.6,13.8c-.3,0-.6,0-.9,0-2.2,0-4.4,0-6.6,0-.3,0-.5,0-.7-.3-1.7-2.1-3.8-3.5-6.5-4.2-2.4-.6-4.8-.5-7.1.3-1.6.5-3.2,1.3-4.5,2.3-1.8,1.3-3.2,3-4.3,5-1.1,2.1-1.8,4.4-1.7,6.8,0,2.6.8,5,2.3,7,1,1.4,2.3,2.4,3.8,3.2,1.9,1,4,1.5,6.2,1.4,1.8,0,3.5-.5,5.2-1.2.2,0,.2,0,.2.1.5.9.9,1.9,1.4,2.8.4.9.9,1.8,1.3,2.7,0,.2,0,.2-.1.3-3.5,1.6-7.2,2.3-11,2-1.8-.2-3.5-.6-5.2-1.3-3.4-1.4-6.2-3.7-8.1-6.8-1.2-1.9-2-4.1-2.4-6.3-.4-2.2-.4-4.4,0-6.6.3-2.1,1-4,1.9-5.9,1-2.1,2.3-3.9,3.8-5.6,1.3-1.4,2.7-2.6,4.3-3.6,1.6-1,3.3-1.9,5.1-2.5,1.4-.5,2.7-.8,4.2-1,1.9-.2,3.8-.2,5.7,0,2.3.3,4.4,1.1,6.4,2.2,2.4,1.4,4.3,3.2,5.8,5.6.7,1,1.2,2.1,1.7,3.2,0,0,0,.2.1.3Z"/>
  <path class="cls-1" d="M187.3,2.3c-7.8,14.6-15.5,29.2-23.2,43.8-.3-.6-.6-1.2-.9-1.8-1.1-2.2-2.2-4.5-3.4-6.7-1.2-2.3-2.3-4.7-3.5-7-.8-1.6-1.6-3.2-2.4-4.8,0-.1-.1-.2-.3-.2-1,0-2.1,0-3.1,0-1.1,0-2-.4-2.6-1.3-.7-1.1-.7-2.2-.2-3.3.7-1.4,1.9-2.1,3.5-2.1,2.3,0,4.6,0,6.9,0,.2,0,.3,0,.3.2.8,1.5,1.5,3.1,2.3,4.6.7,1.3,1.3,2.6,2,4,.5,1.1,1.1,2.2,1.6,3.3,0,.2.1.3.2.5.2-.3.3-.6.5-.9.8-1.5,1.6-3.1,2.4-4.6.8-1.5,1.6-3,2.4-4.5.5-1,1-1.9,1.5-2.9.9-1.7,1.8-3.4,2.7-5.2,1.3-2.5,2.6-4.9,3.9-7.4.6-1.2,1.3-2.3,1.9-3.5,0-.1.1-.2.3-.2,2.3,0,4.7,0,7,0,0,0,0,0,.1,0Z"/>
  <path class="cls-1" d="M23.4,19.4c0,.9-.2,1.7-.5,2.5-.3.7-.7,1.4-1.3,1.9-.5.5-1.2.9-2,1.2-.8.3-1.6.4-2.6.4h-.3v5.9h-3.6V13.3h3.9c.9,0,1.8.1,2.6.4.8.3,1.4.7,2,1.2.5.5,1,1.2,1.3,1.9.3.7.5,1.6.5,2.5ZM19.8,19.4c0-.9-.2-1.5-.6-2-.4-.5-1-.7-1.8-.7h-.4v5.4h.4c.8,0,1.4-.2,1.8-.7.4-.5.6-1.1.6-2Z"/>
  <path class="cls-1" d="M33.1,31.4l-2.8-10c.7,0,1.2-.3,1.5-.8.4-.4.5-1,.5-1.7s-.2-1.3-.6-1.7c-.4-.4-1-.6-1.7-.6h-1.2v14.7h-3.6V13.3h5c1.8,0,3.2.5,4.2,1.4,1,.9,1.5,2.2,1.5,3.9s-.6,3.1-1.9,4.1l2.8,8.7h-3.8Z"/>
  <path class="cls-1" d="M37.6,22.4c0-1.4.2-2.7.7-3.8.4-1.1,1.1-2.1,1.9-2.9.8-.8,1.8-1.4,3-1.9,1.2-.4,2.4-.7,3.9-.7s2.7.2,3.8.7c1.2.4,2.1,1.1,3,1.9.8.8,1.5,1.8,1.9,2.9.4,1.1.7,2.4.7,3.8s-.2,2.7-.7,3.8c-.4,1.1-1.1,2.1-1.9,2.9-.8.8-1.8,1.4-3,1.9-1.2.4-2.4.7-3.8.7s-2.7-.2-3.9-.7c-1.2-.4-2.1-1.1-3-1.9-.8-.8-1.5-1.8-1.9-2.9-.4-1.1-.7-2.4-.7-3.8ZM41.3,22.4c0,.9.1,1.7.4,2.4.3.7.6,1.4,1.1,1.9.5.5,1.1.9,1.8,1.2.7.3,1.5.4,2.4.4s1.6-.1,2.4-.4c.7-.3,1.3-.7,1.8-1.2.5-.5.9-1.1,1.1-1.9.3-.7.4-1.5.4-2.4s-.1-1.7-.4-2.5c-.3-.7-.6-1.4-1.1-1.9-.5-.5-1.1-.9-1.8-1.2-.7-.3-1.5-.4-2.4-.4s-1.6.1-2.4.4c-.7.3-1.3.7-1.8,1.2-.5.5-.9,1.1-1.1,1.9-.3.7-.4,1.6-.4,2.5Z"/>
  <path class="cls-2" d="M60.9,17h-3.7v-3.4h11.1v3.4h-3.7v14.7h-3.6v-14.7Z"/>
  <path class="cls-2" d="M72,13.5h.9l6.2,18.2h-3.8l-.6-1.8h-4.5l-.6,1.8h-3.8l6.2-18.2ZM73.7,26.7l-1.3-4.3-1.3,4.3h2.6Z"/>
  <path class="cls-2" d="M80.4,13.6h3.6v14.7h4.3v3.4h-7.9V13.6Z"/>
  <path class="cls-2" d="M90.3,13.6h7.9v3.4h-4.3v2.3h4.3v3.1h-4.3v5.9h4.3v3.4h-7.9V13.6Z"/>
  <path class="cls-2" d="M107.5,21.9l-3.6-2.5v12.4h-3.6V13.5h1l6.2,4.3v-4.2h3.6v18.1h-3.6v-9.8Z"/>
  <path class="cls-2" d="M116.4,17h-3.7v-3.4h11.1v3.4h-3.7v14.7h-3.6v-14.7Z"/>
  <circle class="cls-1" cx="126.1" cy="29.6" r="1.9"/>
</svg>