<svg xmlns="http://www.w3.org/2000/svg" height="40px" viewBox="0 -960 960 960" width="40px" fill="#e3e3e3"><path d="M280-240q-100 0-170-70T40-480q0-100 70-170t170-70h400q100 0 170 70t70 170q0 100-70 170t-170 70H280Zm0-66.67h400q72 0 122.67-50.66Q853.33-408 853.33-480t-50.66-122.67Q752-653.33 680-653.33H280q-72 0-122.67 50.66Q106.67-552 106.67-480t50.66 122.67Q208-306.67 280-306.67ZM756.67-404Q788-435.33 788-480t-31.33-76q-31.34-31.33-76-31.33-44.67 0-76 31.33-31.34 31.33-31.34 76t31.34 76q31.33 31.33 76 31.33 44.66 0 76-31.33ZM480-480Z"/></svg>