<?xml version="1.0" encoding="UTF-8"?>
<svg id="Layer_1" data-name="Layer 1" xmlns="http://www.w3.org/2000/svg" version="1.1" viewBox="0 0 48 48">
  <defs>
    <style>
      .cls-1 {
        fill: #2563eb;
      }

      .cls-1, .cls-2 {
        stroke-width: 0px;
      }

      .cls-2 {
        fill: #fff;
      }
    </style>
  </defs>
  <rect class="cls-1" width="48" height="48" rx="12" ry="12"/>
  <path class="cls-2" d="M32.3,18.3c-.2,0-.4,0-.6,0-1.6,0-3.1,0-4.7,0-.2,0-.3,0-.5-.2-1.2-1.5-2.7-2.5-4.6-3-1.7-.4-3.4-.3-5,.2-1.2.4-2.2.9-3.2,1.7-1.3,1-2.3,2.1-3,3.5-.8,1.5-1.2,3.1-1.2,4.8,0,1.8.5,3.5,1.6,5,.7,1,1.6,1.7,2.7,2.3,1.4.7,2.8,1.1,4.4,1,1.3,0,2.5-.3,3.7-.9.1,0,.1,0,.2,0,.3.7.7,1.3,1,2,.3.6.6,1.3.9,1.9,0,.1,0,.2,0,.2-2.5,1.1-5.1,1.7-7.8,1.4-1.3-.1-2.5-.4-3.7-.9-2.4-1-4.4-2.6-5.8-4.8-.9-1.4-1.4-2.9-1.7-4.5-.3-1.6-.3-3.1,0-4.7.2-1.5.7-2.9,1.3-4.2.7-1.5,1.6-2.8,2.7-3.9.9-1,1.9-1.8,3-2.6,1.1-.7,2.3-1.3,3.6-1.8,1-.3,1.9-.6,2.9-.7,1.4-.2,2.7-.2,4.1,0,1.6.2,3.1.8,4.5,1.6,1.7,1,3.1,2.3,4.1,3.9.5.7.9,1.5,1.2,2.3,0,0,0,.1,0,.2Z"/>
  <path class="cls-2" d="M44.8,10.1c-5.5,10.4-11,20.7-16.4,31-.2-.4-.4-.9-.6-1.3-.8-1.6-1.6-3.2-2.4-4.8-.8-1.7-1.7-3.3-2.5-5-.6-1.1-1.2-2.3-1.7-3.4,0,0-.1-.1-.2-.1-.7,0-1.5,0-2.2,0-.8,0-1.4-.3-1.9-.9-.5-.7-.5-1.5-.1-2.3.5-1,1.3-1.5,2.5-1.5,1.6,0,3.3,0,4.9,0,.1,0,.2,0,.2.1.5,1.1,1.1,2.2,1.6,3.3.5.9.9,1.9,1.4,2.8.4.8.8,1.6,1.2,2.3,0,.1.1.2.2.4.1-.2.2-.5.4-.7.6-1.1,1.1-2.2,1.7-3.2.6-1.1,1.1-2.1,1.7-3.2.4-.7.7-1.4,1.1-2.1.6-1.2,1.3-2.4,1.9-3.6.9-1.7,1.8-3.5,2.8-5.2.4-.8.9-1.7,1.3-2.5,0,0,0-.1.2-.1,1.6,0,3.3,0,4.9,0,0,0,0,0,.1,0Z"/>
</svg>